<svg xmlns="http://www.w3.org/2000/svg" xmlns:xlink="http://www.w3.org/1999/xlink" version="1.1" id="Pill" x="0px" y="0px" width="100px" height="100px" viewBox="0 0 100 100" enable-background="new 0 0 100 100" xml:space="preserve">
<path fill="#000000" d="M27.786,98.289c-5.713,0-11.152-2.293-15.314-6.455l-4.965-4.963c-8.367-8.369-8.711-21.643-0.764-29.588  l50.529-50.53C60.982,3.043,65.986,1,71.364,1c5.79,0,11.293,2.315,15.495,6.518l4.964,4.964c8.304,8.301,8.591,21.522,0.645,29.467  l-50.529,50.53C38.192,96.225,33.167,98.289,27.786,98.289z M71.364,2.884c-4.875,0-9.405,1.847-12.76,5.201L8.075,58.615  c-7.213,7.211-6.869,19.289,0.764,26.922l4.965,4.965c3.807,3.807,8.772,5.902,13.982,5.902c4.877,0,9.43-1.867,12.82-5.258  l50.53-50.53c7.212-7.211,6.924-19.235-0.644-26.803L85.528,8.85C81.681,5.002,76.65,2.884,71.364,2.884z"/>
<rect x="25.854" y="47.777" transform="matrix(0.7071 0.7071 -0.7071 0.7071 49.3365 -21.2082)" fill="#000000" width="48.83" height="2.348"/>
<path fill="#000000" d="M40.144,43.142L18.896,64.389l-0.664,0.666l-3.578,3.578c-1.141,1.141-2.76,1.371-3.625,0.506l-0.535-0.533  c-0.864-0.865-0.965-2.816,0.176-3.959l3.578-3.578l0.664-0.662L36.16,39.158l-2.989-2.988L9.311,60.031  c-6.625,6.625-5.999,17.99,0.995,24.984l4.332,4.332c6.994,6.994,17.928,7.188,24.553,0.564l23.86-23.863L40.144,43.142z"/>
<circle fill="#000000" cx="69.636" cy="9.941" r="3.013"/>
</svg>